<svg viewBox="0 0 24 24" fill="none" xmlns="http://www.w3.org/2000/svg">
  <path d="M12 21L20.55 12.3684C21.4907 11.4207 22 10.1349 22 8.79389C22 7.45288 21.4907 6.16708 20.55 5.21939C19.5775 4.24434 18.238 3.7 16.85 3.7C15.462 3.7 14.1225 4.24434 13.15 5.21939L12 6.37651L10.85 5.21939C9.87752 4.24434 8.53798 3.7 7.15 3.7C5.76202 3.7 4.42248 4.24434 3.45 5.21939C2.5093 6.16708 2 7.45288 2 8.79389C2 10.1349 2.5093 11.4207 3.45 12.3684L12 21Z" fill="url(#logo-grad)"/>
  <path d="M12 15C13.1046 15 14 14.1046 14 13C14 11.8954 13.1046 11 12 11C10.8954 11 10 11.8954 10 13C10 14.1046 10.8954 15 12 15Z" fill="#11050e"/>
  <path d="M12 15V17" stroke="#11050e" stroke-width="2" stroke-linecap="round"/>
  <defs>
    <linearGradient id="logo-grad" x1="2" y1="3.7" x2="22" y2="21" gradientUnits="userSpaceOnUse">
      <stop stop-color="#ff4b72"/>
      <stop offset="1" stop-color="#ff758c"/>
    </linearGradient>
  </defs>
</svg>